<svg width="162" height="42" viewBox="0 0 162 42" fill="none" xmlns="http://www.w3.org/2000/svg"><path d="M38 18H26V38H38C39.1046 38 40 37.1046 40 36V20C40 18.8954 39.1046 18 38 18Z" fill="#663792"/><path d="M26 33H34C34.5523 33 35 32.5523 35 32V24C35 23.4477 34.5523 23 34 23H26V33Z" fill="#482768"/><path d="M16 20H6C4.89543 20 4 20.8954 4 22V38C4 39.1046 4.89543 40 6 40H22C23.1046 40 24 39.1046 24 38V24H18C16.8954 24 16 23.1046 16 22V20Z" fill="#FFCD35"/><path d="M18.6065 27.1212C18.997 26.7306 18.997 26.0975 18.6065 25.707C18.2159 25.3164 17.5828 25.3164 17.1922 25.707L13.6567 29.2425L10.1213 25.7071C9.73073 25.3166 9.09756 25.3166 8.70704 25.7071C8.31651 26.0976 8.31651 26.7308 8.70704 27.1213L12.2425 30.6567L8.70696 34.1922C8.31643 34.5828 8.31643 35.2159 8.70696 35.6064C9.09748 35.997 9.73065 35.997 10.1212 35.6064L13.6567 32.0709L17.1923 35.6066C17.5828 35.9971 18.216 35.9971 18.6065 35.6066C18.9971 35.2161 18.9971 34.5829 18.6065 34.1924L15.0709 30.6567L18.6065 27.1212Z" fill="#E8BB30"/><path d="M4 4C2.89543 4 2 4.89543 2 6V22C2 23.1046 2.89543 24 4 24H18C16.8954 24 16 23.1046 16 22V4H4Z" fill="#663792"/><path d="M16 9.52779C14.9385 8.57771 13.5367 8 12 8C8.68629 8 6 10.6863 6 14C6 17.3137 8.68629 20 12 20C13.5367 20 14.9385 19.4223 16 18.4722V9.52779Z" fill="#482768"/><path d="M18 4C18 2.89543 18.8954 2 20 2H36C37.1046 2 38 2.89543 38 4V20C38 21.1046 37.1046 22 36 22H20C18.8954 22 18 21.1046 18 20V4Z" fill="#FFCD35"/><path d="M27.5666 6.75C27.7591 6.41667 28.2402 6.41667 28.4326 6.75L33.6288 15.75C33.8212 16.0833 33.5807 16.5 33.1958 16.5H22.8035C22.4186 16.5 22.178 16.0833 22.3705 15.75L27.5666 6.75Z" fill="#E8BB30"/><path fill-rule="evenodd" clip-rule="evenodd" d="M9.5 13C8.67188 13 8 13.6714 8 14.5V27.5C8 28.3286 8.67188 29 9.5 29H12.9258C13.7539 29 14.4258 28.3286 14.4258 27.5V23.8184H16.2988V27.5C16.2988 28.3286 16.9707 29 17.7988 29H21.2236C21.8232 29 22.3398 28.6489 22.5801 28.1416C22.8203 28.6489 23.3379 29 23.9365 29H32.5C33.3281 29 34 28.3286 34 27.5V24.5845C34 23.9985 33.6641 23.4912 33.1748 23.2441C33.4648 22.9707 33.6465 22.582 33.6465 22.1514V19.3286C33.6465 19.0557 33.5742 18.7998 33.4463 18.5791C33.7842 18.3042 34 17.8853 34 17.4155V14.5C34 13.6714 33.3281 13 32.5 13H23.9365C23.3379 13 22.8203 13.3511 22.5801 13.8584C22.3398 13.3511 21.8232 13 21.2236 13H17.7988C16.9707 13 16.2988 13.6714 16.2988 14.5V17.606H14.4258V14.5C14.4258 13.9282 14.1055 13.4312 13.6348 13.1782C13.4238 13.0645 13.1826 13 12.9258 13H9.5Z" fill="white"/><path d="M32.5 24.5843V27.5H27.2206H26.2672H23.9365V14.5H26.2672H27.2206H32.5V17.4157H27.2206V19.3286H32.1469V22.1514H27.2206V24.5843H32.5Z" fill="#663792"/><path d="M17.7987 14.5H21.2241V27.5H17.7987V22.3186H12.9254V27.5H9.5V14.5H12.9254V19.1057H17.7987V14.5Z" fill="#663792"/><path d="M90.8401 15.2904V27.0627H87.5167V18.1999H84.0087V21.7988C84.0087 23.0209 83.8353 24.0244 83.4884 24.8092C83.1527 25.5828 82.6044 26.1546 81.8435 26.5246C81.0826 26.8834 80.0924 27.0627 78.8727 27.0627V24.3215C79.1524 24.3215 79.4042 24.271 79.628 24.1701C79.863 24.0692 80.0588 23.9235 80.2154 23.7329C80.3721 23.5423 80.4896 23.3124 80.5679 23.0433C80.6574 22.763 80.7022 22.4547 80.7022 22.1184V15.2904H90.8401Z" fill="#663792"/><path d="M120.53 21.1766C120.53 21.8044 120.653 22.365 120.899 22.8583C121.145 23.3404 121.492 23.7216 121.94 24.0019C122.387 24.271 122.913 24.4056 123.518 24.4056C124.133 24.4056 124.659 24.271 125.095 24.0019C125.543 23.7216 125.89 23.3404 126.136 22.8583C126.382 22.365 126.505 21.8044 126.505 21.1766C126.505 20.5375 126.388 19.9769 126.153 19.4948C125.918 19.0127 125.577 18.6371 125.129 18.368C124.693 18.0878 124.155 17.9476 123.518 17.9476C122.913 17.9476 122.387 18.0878 121.94 18.368C121.492 18.6371 121.145 19.0127 120.899 19.4948C120.653 19.9769 120.53 20.5375 120.53 21.1766ZM117.089 21.1766C117.089 20.246 117.251 19.4051 117.576 18.6539C117.912 17.8915 118.37 17.2413 118.952 16.7031C119.534 16.1537 120.211 15.7333 120.983 15.4418C121.766 15.1391 122.611 14.9877 123.518 14.9877C124.446 14.9877 125.297 15.1391 126.069 15.4418C126.852 15.7333 127.535 16.1537 128.117 16.7031C128.698 17.2413 129.146 17.8915 129.459 18.6539C129.784 19.4051 129.946 20.246 129.946 21.1766C129.946 22.0959 129.789 22.9424 129.476 23.716C129.163 24.4896 128.721 25.1624 128.15 25.7342C127.579 26.2947 126.897 26.732 126.102 27.0459C125.319 27.3486 124.458 27.5 123.518 27.5C122.578 27.5 121.716 27.3486 120.933 27.0459C120.15 26.732 119.467 26.2947 118.885 25.7342C118.314 25.1624 117.872 24.4896 117.559 23.716C117.246 22.9424 117.089 22.0959 117.089 21.1766Z" fill="#663792"/><path d="M134.597 21.1766C134.597 21.8381 134.742 22.4043 135.033 22.8752C135.335 23.3348 135.732 23.688 136.225 23.9347C136.717 24.1701 137.26 24.2878 137.853 24.2878C138.412 24.2878 138.899 24.215 139.313 24.0692C139.727 23.9235 140.096 23.7385 140.421 23.5142C140.745 23.2788 141.031 23.0321 141.277 22.7743V26.205C140.818 26.5414 140.309 26.8217 139.75 27.0459C139.201 27.2589 138.496 27.3655 137.635 27.3655C136.661 27.3655 135.766 27.2197 134.949 26.9282C134.132 26.6367 133.433 26.2163 132.851 25.6669C132.269 25.1175 131.816 24.4672 131.492 23.716C131.178 22.9536 131.022 22.1072 131.022 21.1766C131.022 20.246 131.178 19.4051 131.492 18.6539C131.816 17.8915 132.269 17.2357 132.851 16.6863C133.433 16.1369 134.132 15.7165 134.949 15.425C135.766 15.1335 136.661 14.9877 137.635 14.9877C138.496 14.9877 139.201 15.0942 139.75 15.3072C140.309 15.5203 140.818 15.8006 141.277 16.1481V19.5789C141.031 19.321 140.745 19.08 140.421 18.8558C140.096 18.6203 139.727 18.4297 139.313 18.284C138.899 18.1382 138.412 18.0653 137.853 18.0653C137.26 18.0653 136.717 18.1887 136.225 18.4353C135.732 18.6708 135.335 19.0239 135.033 19.4948C134.742 19.9545 134.597 20.5151 134.597 21.1766Z" fill="#663792"/><path d="M141.844 18.1999V15.2904H151.68V18.1999H148.39V27.0627H145.134V18.1999H141.844Z" fill="#663792"/><path fill-rule="evenodd" clip-rule="evenodd" d="M46 15.2904H48.0813H49.2562H50.3472C51.4214 15.2904 52.3054 15.453 52.9992 15.7781C53.7041 16.0921 54.2244 16.5405 54.5601 17.1235C54.907 17.7066 55.0804 18.4073 55.0804 19.2257C55.0804 20.033 54.907 20.7337 54.5601 21.3279C54.2244 21.9222 53.7041 22.3762 52.9992 22.6902C52.3054 23.0041 51.4214 23.1611 50.3472 23.1611H49.2562V27.0627H46V15.2904ZM51.5389 20.2012C51.2592 20.4254 50.8619 20.5375 50.3472 20.5375H49.2562V17.9308H50.3472C50.8619 17.9308 51.2592 18.0429 51.5389 18.2671C51.8186 18.4914 51.9585 18.8109 51.9585 19.2257C51.9585 19.6518 51.8186 19.9769 51.5389 20.2012Z" fill="#663792"/><path d="M64.9587 24.4224V27.0627H59.9401H59.0337H56.8182V15.2904H59.0337H59.9401H64.9587V17.9308H59.9401V19.663H64.623V22.2193H59.9401V24.4224H64.9587Z" fill="#663792"/><path fill-rule="evenodd" clip-rule="evenodd" d="M69.6439 27.0627H65.9513L72.3462 14.5L78.7579 27.0627H75.0653L74.0736 25.1624H70.6041L69.6439 27.0627ZM71.1918 22.7574L72.3462 20.1171L73.5132 22.7574H71.1918Z" fill="#663792"/><path fill-rule="evenodd" clip-rule="evenodd" d="M93.3869 15.2904H96.6431V19.1921H97.7341C98.8083 19.1921 99.6922 19.3491 100.386 19.663C101.091 19.9769 101.611 20.431 101.947 21.0252C102.294 21.6082 102.467 22.309 102.467 23.1274C102.467 23.9347 102.294 24.6354 101.947 25.2296C101.611 25.8126 101.091 26.2667 100.386 26.5918C99.6922 26.9058 98.8083 27.0627 97.7341 27.0627H96.6431H95.4681H93.3869V15.2904ZM98.6068 24.2878C98.3719 24.3775 98.0809 24.4224 97.7341 24.4224H96.6431V21.8157H97.7341C98.0809 21.8157 98.3719 21.8661 98.6068 21.967C98.8418 22.0679 99.0209 22.2193 99.144 22.4211C99.2782 22.6117 99.3454 22.8471 99.3454 23.1274C99.3454 23.3965 99.2782 23.632 99.144 23.8338C99.0209 24.0356 98.8418 24.1869 98.6068 24.2878Z" fill="#663792"/><path d="M112.094 15.2904H115.35V27.0627H112.094V22.3706H107.461V27.0627H104.205V15.2904H107.461V19.4612H112.094V15.2904Z" fill="#663792"/><path fill-rule="evenodd" clip-rule="evenodd" d="M152.92 15.2904H156.176V19.1921H157.267C158.341 19.1921 159.225 19.3491 159.919 19.663C160.624 19.9769 161.144 20.431 161.48 21.0252C161.827 21.6082 162 22.309 162 23.1274C162 23.9347 161.827 24.6354 161.48 25.2296C161.144 25.8126 160.624 26.2667 159.919 26.5918C159.225 26.9058 158.341 27.0627 157.267 27.0627H156.176H155.001H152.92V15.2904ZM158.14 24.2878C157.905 24.3775 157.614 24.4224 157.267 24.4224H156.176V21.8157H157.267C157.614 21.8157 157.905 21.8661 158.14 21.967C158.375 22.0679 158.554 22.2193 158.677 22.4211C158.811 22.6117 158.878 22.8471 158.878 23.1274C158.878 23.3965 158.811 23.632 158.677 23.8338C158.554 24.0356 158.375 24.1869 158.14 24.2878Z" fill="#663792"/></svg>